inDegrees=yes
name=ik_Xsens_quaternion
DataType=double
version=3
OpenSimVersion=4.4-2022-07-23-0e9fedc
endheader
time	pelvis_tilt	pelvis_list	pelvis_rotation	pelvis_tx	pelvis_ty	pelvis_tz	hip_flexion_r	hip_adduction_r	hip_rotation_r	knee_angle_r	knee_angle_r_beta	ankle_angle_r	subtalar_angle_r	mtp_angle_r	hip_flexion_l	hip_adduction_l	hip_rotation_l	knee_angle_l	knee_angle_l_beta	ankle_angle_l	subtalar_angle_l	mtp_angle_l	lumbar_extension	lumbar_bending	lumbar_rotation	arm_flex_r	arm_add_r	arm_rot_r	elbow_flex_r	pro_sup_r	wrist_flex_r	wrist_dev_r	arm_flex_l	arm_add_l	arm_rot_l	elbow_flex_l	pro_sup_l	wrist_flex_l	wrist_dev_l
14.16666666666667	0	0	0	0	0.93	0	0	0	0	2.426570649309934e-20	7.588267028677612e-37	0	0	0	0	0	0	2.426570649309934e-20	7.448677074517464e-37	0	0	0	0	0	0	0	0	0	2.426570649309934e-20	2.426570649309934e-20	0	0	41.19097357623875	-61.58863495496784	8.015090472900189	-15.24156432667599	0.00241611592538633	0	0
14.18333333333333	0	0	0	0	0.93	0	0	0	0	1.213285324654967e-20	3.826685106046292e-37	0	0	0	0	0	0	1.213285324654967e-20	3.687095151886144e-37	0	0	0	0	0	0	0	0	0	1.213285324654967e-20	1.213285324654967e-20	0	0	41.19481163400558	-61.59452734421276	8.01540515897762	-15.24684071090197	0.00241611592538633	0	0
14.2	0	0	0	0	0.93	0	0	0	0	2.426570649309934e-20	3.826685106046292e-37	0	0	0	0	0	0	2.426570649309934e-20	3.687095151886144e-37	0	0	0	0	0	0	0	0	0	2.426570649309934e-20	2.426570649309934e-20	0	0	41.20073984906151	-61.6000176345735	8.005841506311073	-15.25597190687217	0.00241611592538633	0	0
14.21666666666667	0	0	0	0	0.93	0	0	0	0	2.426570649309934e-20	3.826685106046292e-37	0	0	0	0	0	0	2.426570649309934e-20	3.687095151886144e-37	0	0	0	0	0	0	0	0	0	2.426570649309934e-20	2.426570649309934e-20	0	0	41.20767438095181	-61.60446008978927	8.001660375676067	-15.25995639980883	0.00241611592538633	0	0
14.23333333333333	0	0	0	0	0.93	0	0	0	0	2.426570649309934e-20	3.362139340411615e-36	0	0	0	0	0	0	2.426570649309934e-20	3.3481803449956e-36	0	0	0	0	0	0	0	0	0	2.426570649309934e-20	2.426570649309934e-20	0	0	41.22264417764453	-61.5988408342614	8.003756686358996	-15.27751649368669	0.00241611592538633	0	0
14.25	3.263512916292116e-34	0	0	0	0.93	0	0	0	0	0	-2.328438995657336e-38	0	0	0	0	0	0	0	9.776388660303472e-39	0	0	0	3.263512916292116e-34	0	0	0	0	0	0	0	0	0	41.24047908167568	-61.61199804392047	7.990580695946068	-15.28052475163575	0.00241611592538633	0	0
14.26666666666667	1.701390866611553e-12	-7.804079239031618e-15	1.11605730148661e-12	1.22955658529675e-19	0.93	4.48247493116958e-21	8.282240857802901e-37	-2.43562359776003e-22	0	3.440804451832503e-07	6.005337277720939e-09	9.710858043173662e-15	-5.870052924617716e-16	-5.846944897754646e-17	1.445658191079492e-22	-6.107414301358412e-29	1.196411876929822e-22	3.44080408932047e-07	6.005336645026608e-09	5.767705794386556e-15	-1.585875374297739e-14	-5.290453591423605e-21	1.701390866611672e-12	-7.804542502639308e-15	1.116057301486488e-12	1.046312982940952e-19	5.543041075020557e-16	3.919751345141305e-15	3.44082880166914e-07	3.439932037917965e-07	5.264852192329471e-20	-6.032312247455588e-19	41.26177820075215	-61.63127639305834	7.982000608415163	-15.28572646862941	0.002416115925385592	-2.311269789245e-20	1.783335481958049e-19
14.28333333333333	0	0	0	0	0.93	0	8.199426648652013e-41	3.697710073046697e-36	0	0	0	1.99933824037401e-35	0	0	-1.953170599564716e-35	-9.325494026667255e-37	0	0	0	1.499503680280508e-35	5.552814861942072e-37	0	0	0	0	0	-8.11508882266313e-38	0	0	0	0	-2.104714535737113e-38	41.28048717187789	-61.6494715822592	7.972791436455329	-15.28971086859067	0.002416115925385592	0	7.892679509014175e-39
14.3	0	0	0	0	0.93	0	3.34267979312695e-60	1.460439086149119e-55	0	2.426570649309934e-20	0	8.762634516894713e-55	0	0	-8.762634516894713e-55	-3.651097715372797e-56	0	2.426570649309934e-20	0	5.841756344596475e-55	2.738323286529598e-56	0	0	0	0	0	-3.422904108161997e-57	0	2.426570649309934e-20	2.426570649309934e-20	0	-1.095329314611839e-55	41.29196364475541	-61.65859250812883	7.971791499493976	-15.30472225771357	0.002416115925385592	0	3.651097715372797e-56
14.31666666666667	0	0	0	0	0.93	0	1.208046897877212e-79	5.937792112446073e-75	0	2.426570649309934e-20	0	3.166822459971239e-74	0	0	-3.166822459971239e-74	-1.484448028111518e-75	0	2.426570649309934e-20	0	2.375116844978429e-74	9.896320187410121e-76	0	0	0	0	0	-1.237040023426265e-76	0	2.426570649309934e-20	2.426570649309934e-20	0	-5.066915935953982e-73	41.26856209005223	-61.6742132387628	7.963950897195217	-15.29244231241897	0.002416115925385592	0	1.900093475982743e-73
14.33333333333333	0	0	0	0	0.93	0	0	0	0	1.314186204269849e-39	1.009332728119907e-40	0	0	0	0	0	0	1.314186204269849e-39	1.009332728119907e-40	0	0	0	0	0	0	0	0	0	0	0	0	0	40.98120715105488	-61.70215715804454	7.724245700435391	-15.14406084298066	0.002416115925385592	0	0
14.35	0	0	0	0	0.93	0	0	0	0	0	0	0	0	0	0	0	0	0	0	0	0	0	0	0	0	0	0	0	0	0	0	0	40.67093468835213	-61.73546102960054	7.449195556028978	-14.99209123033133	0.002416116142311776	0	0
14.36666666666667	-1.446927814820652e-26	-3.309961778134936e-26	-6.980035815975459e-27	-1.896665940439997e-28	0.93	-1.983258099676377e-27	1.683427527308006e-38	6.013103629921314e-28	-7.446280552886264e-27	0	-9.314921971931872e-16	3.08109857851406e-17	-1.128532076217847e-16	4.719740592214408e-21	-2.845286069071192e-15	-1.14886855614402e-15	-7.458074145286925e-15	1.299395849592212e-16	1.810387972289727e-15	5.169028531382146e-17	1.157675392532491e-16	-8.966342568875115e-26	-6.198331784368444e-15	1.831531493440461e-14	-2.832390153441836e-14	3.509386137071452e-16	6.062554212752809e-17	-9.967767296242701e-17	1.03527631321618e-16	4.480014466104376e-17	-1.401623506264769e-24	-1.979379795666349e-26	40.45119319603739	-61.78459136997549	7.219846747382324	-14.88000297989179	0.00241611614231383	9.752164333509153e-24	2.75928893091444e-25
14.38333333333333	1.857374899840308e-25	2.001926548020035e-25	3.165946479015651e-16	-2.629872762942626e-18	0.93	2.259754838504157e-26	4.666090114072922e-25	3.64075640065777e-24	7.773692465713904e-14	0	1.122889954010913e-16	7.613280999831917e-14	1.887488789286118e-13	1.721628911528797e-16	-2.212923714597095e-14	1.292391925797497e-14	-5.122935227524418e-14	0	3.534040858011975e-16	4.803114702353844e-14	2.855588984011876e-13	3.706231122969012e-20	-1.275807888740276e-13	-5.03405511214863e-14	4.798407198619933e-14	3.947212448372767e-15	-2.930157932874701e-14	-1.482995921075942e-14	0	0	-6.145895402594849e-23	-2.016236983823557e-21	40.34292044527202	-61.82898946521848	7.116606836148581	-14.82986560806206	0.002416116142380282	-2.702691891695438e-23	1.248174174875315e-20
14.4	0	0	0	0	0.93	0	7.118576467768849e-36	1.561726278702529e-43	0	0	1.175494350822288e-38	2.626476746368508e-35	0	0	0	2.786168400910546e-35	7.210770961179138e-37	0	-4.114230227878006e-38	2.989419749633709e-35	1.053103985093012e-35	0	0	0	0	0	-3.277669357696368e-37	0	0	0	0	-8.221541155223099e-41	40.3138863205762	-61.87285586594498	7.136060058372419	-14.82760273200224	0.002416116142380282	0	4.932924693133859e-40
14.41666666666667	0	0	0	0	0.93	0	0	0	0	0	1.175494350822288e-38	0	0	0	0	0	0	0	-4.114230227878006e-38	0	0	0	0	0	0	0	0	0	0	0	0	0	40.29741628771234	-61.93250511287741	7.174057093620296	-14.79981330788948	0.002416116142380282	0	0
14.43333333333333	0	0	0	0	0.93	0	0	0	0	0	1.175494350822288e-38	0	0	0	0	0	0	0	-4.114230227878006e-38	0	0	0	0	0	0	0	0	0	0	0	0	0	40.29101843547859	-62.00487173034017	7.218490279253409	-14.77799053994179	0.002416116142380282	0	0
14.45	0	0	0	0	0.93	0	0	0	0	0	0	0	0	0	0	0	0	0	0	0	0	0	0	0	0	0	0	0	0	0	0	0	40.37967294851808	-62.06585753346222	7.343918181384424	-14.81816631618412	0.002416116140927651	0	0
14.46666666666667	0	0	0	0	0.93	0	0	0	0	0	0	0	0	0	0	0	0	0	0	0	0	0	0	0	0	0	0	0	0	0	0	0	40.39702297658958	-62.15161360772863	7.401599575777338	-14.80433843793946	0.002416116140927651	0	0
14.48333333333333	0	0	0	0	0.93	0	0	0	0	0	-4.591774807899561e-41	0	0	0	0	0	0	0	-4.591774807899561e-41	0	0	0	0	0	0	0	0	0	0	0	0	0	40.55872558647818	-62.24917822785572	7.592930532856151	-14.85352990531465	0.002416116140927651	0	0
14.5	0	0	0	0	0.93	0	0	0	0	7.421692185229943e-40	0	0	0	0	0	0	0	0	0	0	0	0	0	0	0	0	0	0	0	0	0	0	40.72553515789442	-62.37743259811103	7.77057553586546	-14.88185580101235	0.002416116140920677	0	0
14.51666666666667	0	0	0	0	0.93	0	0	0	0	0	0	0	0	0	0	0	0	0	0	0	0	0	0	0	0	0	0	0	0	0	0	0	40.94282336412298	-62.51681823054736	8.005536792394455	-14.90638012720376	0.002416116140920689	0	0
14.53333333333333	0	0	0	0	0.93	0	0	0	0	0	0	0	0	0	0	0	0	0	0	0	0	0	0	0	0	0	0	0	0	0	0	0	41.18480448318721	-62.65946228899714	8.255003191836149	-14.9506369374467	0.002416116140920689	0	0
14.55	-8.796011902506063e-25	-4.221376921757404e-17	4.817934879145471e-25	-2.00760689517791e-18	0.93	-2.988035169774493e-19	8.469823333405271e-33	-2.61898905985379e-23	1.764281522879904e-29	1.463501221950816e-16	2.554291521005702e-18	-2.834370567798443e-17	-2.493441746773882e-21	5.742575381216018e-18	-6.80239903660431e-25	-1.314893963740562e-27	-2.630862935330569e-24	2.947327302540316e-16	5.136471981540995e-18	3.574062574881111e-16	-6.915321630072624e-22	4.20406588291326e-17	3.796989978046202e-25	2.897881323573266e-24	7.648888486680611e-26	-1.058424465539765e-19	-3.072904555663478e-16	9.395126218800682e-16	2.729019673760407e-16	2.729091216824391e-16	5.818864557293148e-18	3.204951386691794e-18	41.46028476738633	-62.82537988491407	8.537904386412658	-14.9883351873812	0.002416116140945093	2.294425621735427e-17	3.826240506176189e-19
14.56666666666667	0	0	0	0	0.93	0	0	0	0	9.740644703522345e-39	1.219323755431772e-40	0	0	0	0	0	0	3.393493299335432e-39	-1.072278097383465e-40	0	0	0	0	0	0	0	0	0	0	0	0	0	41.76960422375922	-63.01255589558424	8.862553535350017	-15.03612464793033	0.002416116140945093	0	0
14.58333333333333	0	0	0	0	0.93	0	0	0	0	0	-1.97215226305253e-31	0	0	0	0	0	0	0	0	0	0	0	0	0	0	0	0	0	0	0	0	0	42.1165818655566	-63.20063897325011	9.262930195025264	-15.10240265135872	0.002416116140934572	0	0
14.6	0	0	0	0	0.93	0	0	0	0	0	0	0	0	0	0	0	0	0	0	0	0	0	0	0	0	0	0	0	1.006325022949196e-39	6.479114668342113e-39	0	0	42.48624042417497	-63.40305121302374	9.715406461211627	-15.16571324624089	0.002416116140934572	0	0
14.61666666666667	-1.044961602992771e-24	-3.135769414282486e-16	6.691204617568855e-25	7.478397405394641e-20	0.93	-4.727568862750236e-19	-1.003606098049695e-44	-1.334532320224485e-19	0	1.810183431347262e-15	1.319680582229307e-16	2.431944703321469e-13	1.681134623009856e-13	1.705759846020022e-20	-2.997777071512097e-25	-3.177583185152395e-23	2.514958231801079e-24	0	-2.528486582056637e-16	-1.554224734022974e-13	1.266549218462647e-13	2.671827122067482e-17	-9.45395900350544e-15	-2.565160715850034e-16	-6.289467407065883e-15	1.344519184843049e-13	9.738101764222587e-13	8.967617250938346e-14	0	0	1.13918739639473e-18	-1.350769977655835e-20	42.88799832326483	-63.61337494385187	10.23516931201507	-15.25954004087482	0.002416116141121097	-6.988833248199341e-19	3.72394132828423e-20
14.63333333333333	0	0	0	0	0.93	0	0	0	0	0	0	0	0	0	0	0	0	0	0	0	0	0	0	0	0	0	0	0	0	0	0	0	43.30642837662355	-63.83318248537493	10.80730704548131	-15.36184227339835	0.002416115896988816	0	0
